<svg width="19" height="18" viewBox="0 0 19 18" fill="none" xmlns="http://www.w3.org/2000/svg">
<path d="M17.9976 7.37492H9.67057V10.8259H14.4626C14.0166 13.0189 12.1496 14.2789 9.67057 14.2789C6.74757 14.2789 4.39157 11.9229 4.39157 8.99892C4.39157 6.07592 6.74757 3.71992 9.67057 3.71992C10.9296 3.71992 12.0676 4.16692 12.9606 4.89792L15.5606 2.29892C13.9766 0.917918 11.9456 0.065918 9.67057 0.065918C4.71657 0.065918 0.736572 4.04492 0.736572 8.99992C0.736572 13.9549 4.71557 17.9339 9.67057 17.9339C14.1376 17.9339 18.1996 14.6849 18.1996 8.99992C18.1996 8.47192 18.1186 7.90292 17.9976 7.37492Z" fill="#DB4437"/>
</svg>
