<svg width="36" height="28" viewBox="0 0 36 28" fill="none" xmlns="http://www.w3.org/2000/svg">
<path fill-rule="evenodd" clip-rule="evenodd" d="M2.27232 0.175666L8.482 4.01006C8.81518 4.2158 9.01803 4.57955 9.01803 4.97126V22.4882C9.01803 22.8855 8.80946 23.2535 8.46874 23.4575L2.25906 27.175C1.724 27.4953 1.03068 27.321 0.710502 26.7857C0.605661 26.6105 0.550293 26.41 0.550293 26.2057V1.13686C0.550293 0.513036 1.05578 0.00732422 1.67933 0.00732422C1.88877 0.00732422 2.09409 0.0656106 2.27232 0.175666Z" fill="#9155FD"/>
<path opacity="0.077704" fill-rule="evenodd" clip-rule="evenodd" d="M0.550293 9.13721L9.01803 13.9948V18.757L0.550293 9.13721Z" fill="black"/>
<path opacity="0.077704" fill-rule="evenodd" clip-rule="evenodd" d="M0.550293 9.13721L9.01803 13.8712V16.7803L0.550293 9.13721Z" fill="black"/>
<path fill-rule="evenodd" clip-rule="evenodd" d="M33.8297 0.17136L27.62 3.99291C27.286 4.19846 27.0826 4.56268 27.0826 4.95499V22.4884C27.0826 22.8856 27.2911 23.2537 27.6318 23.4576L33.8415 27.1752C34.3766 27.4955 35.0699 27.3212 35.3901 26.7859C35.4949 26.6106 35.5503 26.4102 35.5503 26.2059V1.13345C35.5503 0.509618 35.0448 0.00390625 34.4213 0.00390625C34.2124 0.00390625 34.0076 0.0618733 33.8297 0.17136Z" fill="#9155FD"/>
<path opacity="0.077704" fill-rule="evenodd" clip-rule="evenodd" d="M35.5503 9.13721L27.0826 13.9846V18.9008L35.5503 9.13721Z" fill="black"/>
<path opacity="0.077704" fill-rule="evenodd" clip-rule="evenodd" d="M35.5503 9.13721L27.0826 13.867V16.9241L35.5503 9.13721Z" fill="black"/>
<path fill-rule="evenodd" clip-rule="evenodd" d="M2.26931 0.166493L18.0503 9.84305V19.1618L0.550293 9.13451V1.12954C0.550293 0.505712 1.05578 0 1.67933 0C1.88757 0 2.09176 0.0576217 2.26931 0.166493Z" fill="#9155FD"/>
<path fill-rule="evenodd" clip-rule="evenodd" d="M2.26931 0.166493L18.0503 9.84305V19.1618L0.550293 9.13451V1.12954C0.550293 0.505712 1.05578 0 1.67933 0C1.88757 0 2.09176 0.0576217 2.26931 0.166493Z" fill="white" fill-opacity="0.15"/>
<path fill-rule="evenodd" clip-rule="evenodd" d="M33.8313 0.166493L18.0503 9.84305V19.1618L35.5503 9.13451V1.12954C35.5503 0.505712 35.0448 0 34.4213 0C34.213 0 34.0088 0.0576217 33.8313 0.166493Z" fill="#9155FD"/>
<path fill-rule="evenodd" clip-rule="evenodd" d="M33.8313 0.166493L18.0503 9.84305V19.1618L35.5503 9.13451V1.12954C35.5503 0.505712 35.0448 0 34.4213 0C34.213 0 34.0088 0.0576217 33.8313 0.166493Z" fill="white" fill-opacity="0.3"/>
</svg>
